<mxfile host="app.diagrams.net" modified="2023-09-06T21:31:27.457Z" agent="Mozilla/5.0 (Macintosh; Intel Mac OS X 10.15; rv:109.0) Gecko/20100101 Firefox/116.0" version="21.7.2" etag="DIEfmdTm_DKF1oiWQqSy" type="github">
  <diagram name="Page-1" id="-3j9siJX67dkFCiV5ArE">
    <mxGraphModel>
      <root>
        <mxCell id="0" />
        <mxCell id="1" parent="0" />
      </root>
    </mxGraphModel>
  </diagram>
</mxfile>
